<svg width="250" height="246" viewBox="0 0 250 246" fill="none" xmlns="http://www.w3.org/2000/svg">
<g clip-path="url(#clip0_151_186)">
<path d="M205.234 201.186C208.104 199.529 211.773 200.512 213.43 203.382C215.087 206.252 214.104 209.921 211.234 211.578L159.272 241.578C156.403 243.235 152.733 242.252 151.076 239.382C149.42 236.512 150.403 232.843 153.272 231.186L205.234 201.186ZM231.839 159.267C234.709 157.611 238.378 158.594 240.035 161.463C241.692 164.333 240.709 168.003 237.839 169.66L109.667 243.66C106.798 245.316 103.128 244.333 101.471 241.463C99.8145 238.594 100.798 234.924 103.667 233.267L231.839 159.267ZM239.392 128.349C242.261 126.692 245.931 127.675 247.588 130.545C249.245 133.415 248.261 137.084 245.392 138.741L79.1147 234.741C76.245 236.398 72.5754 235.415 70.9186 232.545C69.2618 229.675 70.245 226.006 73.1147 224.349L239.392 128.349ZM220.097 112.93C222.967 111.273 226.637 112.256 228.294 115.126C229.95 117.996 228.967 121.666 226.097 123.322L56.3564 221.322C53.4867 222.979 49.8171 221.996 48.1603 219.126C46.5035 216.257 47.4869 212.587 50.3564 210.93L220.097 112.93ZM182.617 108.012C185.487 106.355 189.156 107.339 190.813 110.209C192.47 113.078 191.487 116.748 188.617 118.405L38.7947 204.905C35.9251 206.561 32.2555 205.578 30.5986 202.709C28.9418 199.839 29.9252 196.169 32.7947 194.512L182.617 108.012ZM139.94 106.093C142.809 104.436 146.479 105.419 148.136 108.289C149.793 111.159 148.809 114.828 145.94 116.485L24.6962 186.485C21.8264 188.142 18.1569 187.159 16.5 184.289C14.8431 181.419 15.8264 177.75 18.6962 176.093L139.94 106.093ZM210.712 38.6743C213.582 37.0179 217.251 38.0011 218.908 40.8705C220.565 43.7401 219.582 47.4097 216.712 49.0666L33.1147 155.067C30.245 156.723 26.5754 155.74 24.9186 152.87C23.262 150.001 24.2451 146.331 27.1147 144.674L210.712 38.6743ZM174.097 33.2558C176.967 31.599 180.637 32.5824 182.294 35.4519C183.95 38.3217 182.967 41.9912 180.097 43.6481L10.3564 141.648C7.48667 143.305 3.81709 142.322 2.16025 139.452C0.503665 136.582 1.48683 132.913 4.35641 131.256L174.097 33.2558ZM124.492 35.3372C127.362 33.6803 131.032 34.6636 132.688 37.5333C134.345 40.4031 133.362 44.0726 130.492 45.7295L10.1147 115.229C7.24502 116.886 3.57547 115.903 1.91858 113.033C0.26173 110.164 1.24498 106.494 4.11474 104.837L124.492 35.3372ZM98.269 23.9191C101.139 22.2623 104.808 23.2457 106.465 26.1152C108.122 28.985 107.139 32.6545 104.269 34.3114L17.6664 84.3114C14.7968 85.9679 11.1271 84.9848 9.4703 82.1152C7.81372 79.2456 8.79709 75.576 11.6664 73.9191L98.269 23.9191ZM90.2339 2C93.1036 0.343202 96.7732 1.32662 98.4301 4.19615C100.087 7.06591 99.1037 10.7355 96.2339 12.3923L44.2724 42.3923C41.4027 44.0489 37.7331 43.0658 36.0763 40.1962C34.4197 37.3265 35.403 33.6569 38.2724 32L90.2339 2Z" fill="white"/>
</g>
<defs>
<clipPath id="clip0_151_186">
<rect width="250" height="246" fill="white"/>
</clipPath>
</defs>
</svg>
