<?xml version="1.0" encoding="UTF-8"?>
<svg id="Layer_1" data-name="Layer 1" xmlns="http://www.w3.org/2000/svg" viewBox="0 0 96 96">
  <defs>
    <style>
      .cls-1 {
        fill: #002152;
      }
    </style>
  </defs>
  <path class="cls-1" d="M78.59,77.79c1.09-.63,2.49-.26,3.12.83.63,1.09.26,2.49-.83,3.12l-19.75,11.4c-1.09.63-2.49.26-3.12-.83-.63-1.09-.26-2.49.83-3.12l19.75-11.4ZM88.71,61.85c1.09-.63,2.49-.26,3.12.83.63,1.09.26,2.49-.83,3.12l-48.72,28.13c-1.09.63-2.49.26-3.12-.84-.63-1.09-.26-2.49.83-3.12l48.72-28.13ZM91.58,50.1c1.09-.63,2.49-.26,3.12.83s.26,2.49-.83,3.12l-63.21,36.49c-1.09.63-2.49.26-3.12-.83s-.26-2.49.83-3.12l63.21-36.49ZM84.24,44.24c1.09-.63,2.49-.26,3.12.83.63,1.09.26,2.49-.84,3.12L22,85.44c-1.09.63-2.49.26-3.12-.83-.63-1.09-.26-2.49.83-3.12l64.52-37.25ZM70,42.37c1.09-.63,2.49-.26,3.12.84.63,1.09.26,2.49-.83,3.12L15.32,79.2c-1.09.63-2.49.26-3.12-.83-.63-1.09-.26-2.49.83-3.12l56.95-32.88ZM53.77,41.64c1.09-.63,2.49-.26,3.12.83.63,1.09.26,2.49-.83,3.12l-46.09,26.61c-1.09.63-2.49.26-3.12-.83s-.26-2.49.83-3.12l46.09-26.61ZM80.68,16.01c1.09-.63,2.49-.26,3.12.83.63,1.09.26,2.49-.83,3.12L13.16,60.25c-1.09.63-2.49.26-3.12-.84-.63-1.09-.26-2.49.83-3.12L80.68,16.01ZM66.76,13.95c1.09-.63,2.49-.26,3.12.83.63,1.09.26,2.49-.84,3.12L4.51,55.15c-1.09.63-2.49.26-3.12-.83-.63-1.09-.26-2.49.83-3.12L66.76,13.95ZM47.9,14.74c1.09-.63,2.49-.26,3.12.83.63,1.09.26,2.49-.83,3.12L4.42,45.11c-1.09.63-2.49.26-3.12-.83-.63-1.09-.26-2.49.83-3.12L47.9,14.74ZM37.93,10.4c1.09-.63,2.49-.26,3.12.83.63,1.09.26,2.49-.83,3.12L7.29,33.36c-1.09.63-2.49.26-3.12-.83-.63-1.09-.26-2.49.83-3.12L37.93,10.4ZM34.88,2.07c1.09-.63,2.49-.26,3.12.83.63,1.09.26,2.49-.83,3.12l-19.75,11.4c-1.09.63-2.49.26-3.12-.83-.63-1.09-.26-2.49.83-3.12L34.88,2.07Z"/>
</svg>