<?xml version="1.0" encoding="UTF-8"?>
<svg id="Layer_1-_Karla_Bold_-40" xmlns="http://www.w3.org/2000/svg" version="1.1" viewBox="0 0 1244.56 175">
  <!-- Generator: Adobe Illustrator 29.8.2, SVG Export Plug-In . SVG Version: 2.1.1 Build 3)  -->
  <defs>
    <style>
      .st0 {
        fill: #fff;
      }
    </style>
  </defs>
  <path class="st0" d="M165.4,61.67L96.53,17.05c-5.2-3.13-11.71-3.13-16.91,0L12.77,60.38c-4.78,2.75-6.41,8.86-3.65,13.64.83,1.45,2.01,2.65,3.44,3.53l67.01,45.69c5.16,3.27,11.72,3.35,16.96.21l68.87-44.64c4.73-2.71,6.36-8.75,3.65-13.48-.87-1.52-2.13-2.78-3.65-3.65h0ZM89.69,112.8c-.93.4-1.99.38-2.91-.04L22.71,69.09l63.81-41.4c.99-.42,2.11-.42,3.1,0l65.65,42.56-65.6,42.56h.02Z"/>
  <path class="st0" d="M79.63,51.56l-36.24,23.5,11.36,7.76,31.78-20.62c.99-.42,2.11-.42,3.1,0l32.76,21.23,11.65-7.54-37.51-24.34c-5.2-3.12-11.71-3.12-16.91,0h.01Z"/>
  <path class="st0" d="M165.4,96.22l-7.17-4.65-11.65,7.54,8.76,5.68-65.71,42.52c-.93.41-1.98.41-2.91,0L22.65,103.63l8.32-5.38-11.34-7.8-6.86,4.44c-4.77,2.77-6.38,8.89-3.61,13.65.82,1.42,2,2.62,3.39,3.48l67.01,45.76c5.16,3.28,11.72,3.35,16.96.2l68.87-44.67c4.72-2.73,6.33-8.77,3.6-13.5-.87-1.5-2.1-2.74-3.6-3.6h0Z"/>
  <path class="st0" d="M249.97,70.61c-3.84-6.1-9.55-9.15-17.16-9.15-7.32-.12-14.31,3.05-19.04,8.64-5.18,5.93-7.76,13.65-7.76,23.17s2.71,17.36,8.14,23.55c4.86,5.74,12.03,9,19.54,8.89,7.76,0,13.53-3.71,17.28-11.14l1.78,9.4h12.15V38.05h-14.93v32.56ZM249.97,97.03c.12,4.12-1.46,8.11-4.38,11.02-5.06,5.42-13.55,5.71-18.97.65-.52-.49-1.01-1.02-1.45-1.59-2.84-3.46-4.26-8.03-4.26-13.71s1.39-10.21,4.16-13.59c2.49-3.24,6.36-5.13,10.45-5.08,4.18,0,7.52,1.25,10.03,3.75,2.79,2.85,4.36,6.66,4.38,10.65l.04,7.89h0Z"/>
  <path class="st0" d="M312.6,61.47c-8.02,0-14.12,3.84-18.3,11.52v-34.94h-14.76v85.92h14.78v-28.18c.17-7.01,1.65-12.29,4.44-15.81,2.8-3.52,6.16-5.27,10.08-5.26,3.93,0,6.98,1.15,9.15,3.44s3.25,5.71,3.24,10.23v35.57h14.78v-35.57c0-8.1-1.9-14.62-5.7-19.54-3.8-4.93-9.7-7.39-17.71-7.39h0Z"/>
  <rect class="st0" x="350.16" y="62.97" width="14.78" height="60.99"/>
  <path class="st0" d="M357.59,34.79c-2.92,0-5.17.77-6.76,2.32-1.64,1.68-2.5,3.98-2.38,6.32-.12,2.35.73,4.64,2.38,6.32,1.58,1.55,3.84,2.31,6.76,2.31s5.08-.77,6.71-2.31c1.67-1.66,2.56-3.97,2.44-6.32.1-2.35-.81-4.64-2.49-6.29-1.62-1.58-3.85-2.35-6.66-2.35Z"/>
  <path class="st0" d="M417.04,91.28l-14.4-5.38c-4.93-1.42-7.39-3.59-7.39-6.51,0-1.66.9-3.14,2.7-4.45,1.79-1.29,4.32-1.94,7.57-1.94s5.77.59,7.49,1.76c1.66,1.03,2.74,2.8,2.88,4.76h13.9c-.12-5.08-2.54-9.82-6.57-12.9-4.22-3.42-10.23-5.13-18.04-5.13s-14.01,1.56-18.63,4.7c-4.63,3.13-6.95,7.29-6.96,12.48,0,7.76,4.93,13.36,14.78,16.78l13.31,4.75c2.11.57,4.1,1.51,5.89,2.76,1.27,1.04,1.97,2.62,1.88,4.26,0,1.83-1.02,3.44-3.07,4.82-2.35,1.46-5.08,2.18-7.83,2.06-8.26,0-12.47-2.88-12.65-8.64h-13.82c.08,6.43,2.58,11.42,7.49,14.98,4.91,3.55,11.42,5.32,19.54,5.32s14.62-1.92,19.54-5.76c4.77-3.68,7.16-8.02,7.15-13.02.13-3.59-1.26-7.07-3.83-9.58-2.55-2.48-6.19-4.51-10.93-6.1h0v-.02h0Z"/>
  <path class="st0" d="M458.37,110.44v-3c-.05-2.06.8-4.05,2.31-5.45,1.55-1.46,4.07-2.65,7.58-3.57l13.15-3.26c7.35-1.83,12.66-4.43,15.97-7.82,3.3-3.39,4.97-8.16,4.99-14.34,0-6.17-2.55-11.35-7.64-15.53-5.26-4.34-11.98-6.51-20.17-6.51-8.76,0-15.77,1.88-21.03,5.63-5.54,4.01-8.4,9.78-8.58,17.29h16.41c.83-6.66,5.47-9.98,13.9-9.98,3.84,0,6.84.92,9.02,2.75,2.09,1.67,3.29,4.22,3.25,6.9.04,2.58-.97,5.06-2.8,6.87-1.88,1.88-5.12,3.4-9.71,4.57l-11.89,2.92c-6.76,1.66-11.69,4.25-14.78,7.76-3.18,3.75-4.77,9.09-4.77,16.02v12.28h59.24v-13.53h-44.45,0Z"/>
  <g>
    <path class="st0" d="M564.74,109.68c-1.72,1.8-4.44,2.71-8.18,2.71-2.55,0-4.85-.69-6.93-2.09-2.08-1.39-3.74-3.47-4.96-6.24-1.22-2.77-1.84-6.02-1.84-10.39s.65-7.92,1.96-10.67c1.3-2.74,3-4.77,5.08-6.08,2.08-1.3,4.31-1.96,6.68-1.96,2.87,0,5.21.87,7.02,2.62,1.8,1.74,3.04,3.95,3.71,6.61l14.85-.37c-.34-2.66-1.1-5.31-2.31-7.93-1.2-2.62-2.87-5.01-4.99-7.15s-4.69-3.85-7.7-5.12c-3.01-1.28-6.5-1.91-10.45-1.91-5.08,0-9.8,1.23-14.14,3.68s-7.86,6.06-10.54,10.82c-2.69,4.76-4.03,10.58-4.03,17.44,0,6.49,1.35,12.14,4.03,16.94,2.68,4.81,6.19,8.53,10.54,11.17,4.36,2.64,9.06,3.96,14.14,3.96h-.01v.02c5.5,0,10.13-1.05,13.92-3.15,3.78-2.09,6.65-4.91,8.61-8.45,1.96-3.53,2.94-7.45,2.94-11.73h-14.85c0,3.04-.84,5.46-2.55,7.27Z"/>
    <rect class="st0" x="595.05" y="38.36" width="14.73" height="85.61"/>
    <path class="st0" d="M636.93,35.12c-2.87,0-5.11.78-6.71,2.34-1.6,1.56-2.4,3.57-2.4,6.27s.79,4.82,2.4,6.33c1.6,1.52,3.84,2.28,6.71,2.28s5.06-.76,6.68-2.28c1.61-1.51,2.43-3.71,2.43-6.33s-.81-4.71-2.43-6.27-3.81-2.34-6.68-2.34Z"/>
    <rect class="st0" x="629.57" y="63.2" width="14.73" height="60.78"/>
    <rect class="st0" x="664.5" y="123.96" width=".01" height=".02"/>
    <path class="st0" d="M751.44,65.04c-3.35-2.23-7.5-3.34-12.45-3.34-3.58,0-6.85.65-9.8,1.91-2.95,1.27-5.52,3.27-7.7,5.99-1.18,1.47-2.2,3.2-3.09,5.16-.04-.11-.08-.22-.13-.33-1.68-4.03-4.21-7.16-7.55-9.39-3.35-2.23-7.52-3.34-12.51-3.34-4.25,0-8.01,1.01-11.3,3.03-3.29,2.02-5.93,5.04-7.93,9.08l-1.62-10.36h-12.85v60.51h14.73v-27.08c0-4.87.65-8.93,1.94-12.2,1.29-3.26,3.06-5.71,5.33-7.33,2.26-1.61,4.88-2.43,7.83-2.43,3.5,0,6.33,1.14,8.49,3.43,2.16,2.3,3.24,5.69,3.24,10.18v35.44h14.73v-28.33c.1-6.78,1.36-11.91,3.79-15.34,2.54-3.58,6.02-5.37,10.43-5.37,3.5,0,6.33,1.14,8.49,3.43,2.16,2.3,3.24,5.69,3.24,10.18v35.44h0s14.82,0,14.82,0v-35.44c0-5.36-.84-10.06-2.55-14.1-1.71-4.03-4.24-7.16-7.58-9.39Z"/>
    <path class="st0" d="M817.25,64.24c-3.91-1.69-8.49-2.53-13.73-2.53-5.78,0-10.74.68-14.88,2.03-4.15,1.35-7.32,3.47-9.52,6.36-2.21,2.89-3.31,6.62-3.31,11.2h16.1c0-1.88.48-3.47,1.41-4.78.94-1.32,2.28-2.33,4.03-3.03s3.81-1.06,6.18-1.06c4.12,0,7.04,1.01,8.77,3.05,1.72,2.05,2.59,5.19,2.59,9.43v6.24c-2.45-.66-4.91-1.2-7.39-1.62-2.93-.5-6.04-.75-9.33-.75-5.03,0-9.4.64-13.1,1.96s-6.57,3.27-8.58,5.87c-2.02,2.6-3.03,5.81-3.03,9.64,0,3.45.87,6.66,2.62,9.61,1.75,2.96,4.35,5.34,7.83,7.15,3.48,1.8,7.81,2.71,13.01,2.71h.02c4.7,0,8.64-1.1,11.82-3.3,2.92-2.03,5.19-4.69,6.79-7.96l1.21,9.52h12.84v-38.56c0-5.44-1.08-9.92-3.24-13.41s-5.2-6.08-9.11-7.77ZM808.42,112.5c-2.12,1.33-4.7,2-7.74,2-4,0-6.91-.81-8.74-2.43s-2.75-3.55-2.75-5.8c0-3.09,1.12-5.27,3.37-6.56,2.25-1.29,5.12-1.94,8.61-1.94,2.37,0,4.91.2,7.61.62,2.18.34,4.21.78,6.11,1.33v2.08c-.05,1.9-.59,3.8-1.64,5.7-1.09,1.99-2.71,3.66-4.83,4.99Z"/>
    <path class="st0" d="M873.55,113.61c-1.46.33-2.91.5-4.37.5-4.74,0-7.11-2.5-7.11-7.49v-33.44h16.47v-9.73h-16.47v-16.11h-14.73v16.11h-8.49v9.73h8.49v33.94c0,4.24.88,7.73,2.65,10.48,1.77,2.75,4.13,4.79,7.11,6.12,2.97,1.33,6.25,2,9.83,2h0v-.02c2.41,0,4.73-.31,6.93-.93s4.47-1.38,6.8-2.3l-2.12-10.36c-1.87.67-3.53,1.17-4.99,1.5Z"/>
    <path class="st0" d="M938.89,83.67c-.74-4.16-2.19-7.9-4.33-11.2-2.15-3.31-4.98-5.92-8.49-7.86-3.52-1.93-7.68-2.9-12.51-2.9-5.2,0-9.95,1.26-14.23,3.8-4.29,2.54-7.71,6.2-10.27,10.98-2.56,4.79-3.84,10.71-3.84,17.16s1.29,12.07,3.87,16.88c2.58,4.8,6.02,8.54,10.3,11.2,4.28,2.66,9,3.99,14.16,3.99h0v.03c4.66,0,8.82-.84,12.48-2.53,3.66-1.68,6.65-4.01,8.95-6.99,2.31-2.98,3.78-6.42,4.4-10.33h-14.85c-.54,2.66-1.78,4.66-3.74,5.99s-4.37,2-7.24,2c-3.08,0-5.64-.75-7.65-2.25s-3.53-3.56-4.55-6.18c-1.01-2.59-1.51-5.58-1.53-8.94h39.19c.67-4.41.63-8.69-.12-12.85ZM906.18,75.68c2.08-1.5,4.61-2.25,7.61-2.25,2.5,0,4.55.51,6.15,1.53,1.6,1.03,2.84,2.37,3.71,4.03.87,1.66,1.46,3.49,1.78,5.49.21,1.35.31,2.7.32,4.05h-25.85c.18-2.45.68-4.7,1.53-6.73,1.08-2.58,2.66-4.62,4.74-6.12Z"/>
    <path class="st0" d="M1006.27,113.61c-1.46.33-2.91.5-4.37.5-4.74,0-7.11-2.5-7.11-7.49v-33.44h16.47v-9.73h-16.47v-16.11h-14.73v16.11h-8.49v9.73h8.49v33.94c0,4.24.88,7.73,2.65,10.48,1.77,2.75,4.13,4.79,7.11,6.12,2.97,1.33,6.25,2,9.83,2h0v-.02c2.41,0,4.73-.31,6.93-.93s4.47-1.38,6.8-2.3l-2.12-10.36c-1.87.67-3.53,1.17-4.99,1.5Z"/>
    <path class="st0" d="M1062.34,65.19c-4.43-2.33-9.29-3.49-14.82-3.49s-10.54,1.16-15.01,3.49-8.02,5.87-10.64,10.61c-2.63,4.74-3.94,10.85-3.94,17.97s1.32,13.04,3.94,17.76c2.62,4.72,6.16,8.27,10.64,10.64s9.48,3.55,15.01,3.55h0c5.45-.01,10.39-1.19,14.82-3.56,4.42-2.37,7.95-5.91,10.57-10.64,2.62-4.72,3.93-10.51,3.93-17.75s-1.31-13.23-3.93-17.97-6.14-8.28-10.57-10.61ZM1060.16,104.32c-1.31,2.83-3.11,4.97-5.37,6.4-2.27,1.43-4.86,2.15-7.77,2.15-4.37,0-7.83-1.61-10.39-4.81-2.56-3.2-3.84-7.97-3.84-14.29,0-4.28.65-7.86,1.96-10.73,1.31-2.87,3.11-5.02,5.4-6.46,2.29-1.43,4.91-2.15,7.86-2.15,4.37,0,7.81,1.63,10.33,4.87,2.52,3.25,3.78,8.07,3.78,14.48,0,4.2-.65,7.71-1.96,10.54Z"/>
    <path class="st0" d="M1128.22,65.19c-4.43-2.33-9.29-3.49-14.82-3.49s-10.54,1.16-15.01,3.49-8.02,5.87-10.64,10.61c-2.63,4.74-3.94,10.85-3.94,17.97s1.32,13.04,3.94,17.76c2.62,4.72,6.16,8.27,10.64,10.64s9.48,3.55,15.01,3.55h0c5.45-.01,10.39-1.19,14.82-3.56,4.42-2.37,7.95-5.91,10.57-10.64,2.62-4.72,3.93-10.51,3.93-17.75s-1.31-13.23-3.93-17.97-6.14-8.28-10.57-10.61ZM1126.05,104.32c-1.31,2.83-3.11,4.97-5.37,6.4-2.27,1.43-4.86,2.15-7.77,2.15-4.37,0-7.83-1.61-10.39-4.81-2.56-3.2-3.84-7.97-3.84-14.29,0-4.28.65-7.86,1.96-10.73,1.31-2.87,3.11-5.02,5.4-6.46,2.29-1.43,4.91-2.15,7.86-2.15,4.37,0,7.81,1.62,10.33,4.87s3.78,8.07,3.78,14.48c0,4.2-.65,7.71-1.96,10.54Z"/>
    <rect class="st0" x="1155.46" y="38.36" width="14.73" height="85.61"/>
    <path class="st0" d="M1232.91,97.54c-2.58-2.5-6.2-4.54-10.86-6.12l-14.35-5.37c-4.91-1.46-7.36-3.62-7.36-6.49,0-1.71.88-3.19,2.65-4.46,1.76-1.28,4.21-1.91,7.33-1.91,3.46,0,6.03.59,7.74,1.75s2.66,2.74,2.87,4.74h13.85c-.12-5.2-2.3-9.5-6.52-12.89-4.22-3.38-10.16-5.08-17.94-5.08s-14,1.57-18.63,4.71c-4.64,3.15-6.96,7.27-6.96,12.39,0,3.86,1.26,7.19,3.8,9.98,2.53,2.79,6.18,5.03,10.92,6.74l13.23,4.74c2.71.83,4.67,1.74,5.9,2.71,1.22.98,1.84,2.32,1.84,4.03,0,1.33-.45,2.54-1.37,3.62-.92,1.09-2.2,1.94-3.84,2.56-1.65.61-3.53.93-5.65.93-3.87,0-6.93-.69-9.18-2.06-2.24-1.38-3.43-3.56-3.55-6.56h-13.6c.04,4.24,1.18,7.88,3.43,10.89,2.24,3.02,5.45,5.33,9.64,6.93,4.19,1.6,9.19,2.4,15.01,2.4h0v.02c5.04,0,9.47-.89,13.3-2.68,3.82-1.79,6.8-4.11,8.95-6.96,2.14-2.85,3.21-5.88,3.21-9.08,0-3.82-1.29-6.98-3.87-9.48Z"/>
  </g>
</svg>