<?xml version="1.0" encoding="UTF-8"?>
<svg id="Layer_1-_Karla_Bold_-40" xmlns="http://www.w3.org/2000/svg" version="1.1" viewBox="0 0 1244.56 175">
  <!-- Generator: Adobe Illustrator 29.8.2, SVG Export Plug-In . SVG Version: 2.1.1 Build 3)  -->
  <defs>
    <style>
      .st0 {
        fill: #0080d4;
      }

      .st1 {
        fill: #808182;
      }

      .st2 {
        fill: #212225;
      }
    </style>
  </defs>
  <path class="st0" d="M165.4,61.67L96.53,17.05c-5.2-3.13-11.71-3.13-16.91,0L12.77,60.38c-4.78,2.75-6.41,8.86-3.65,13.64.83,1.45,2.01,2.65,3.44,3.53l67.01,45.69c5.16,3.27,11.72,3.35,16.96.21l68.87-44.64c4.73-2.71,6.36-8.75,3.65-13.48-.87-1.52-2.13-2.78-3.65-3.65ZM89.69,112.8c-.93.4-1.99.38-2.91-.04L22.71,69.09l63.81-41.4c.99-.42,2.11-.42,3.1,0l65.65,42.56-65.6,42.56Z"/>
  <path class="st0" d="M79.63,51.56l-36.24,23.5,11.36,7.76,31.78-20.62c.99-.42,2.11-.42,3.1,0l32.76,21.23,11.65-7.54-37.51-24.34c-5.2-3.12-11.71-3.12-16.91,0Z"/>
  <path class="st0" d="M165.4,96.22l-7.17-4.65-11.65,7.54,8.76,5.68-65.71,42.52c-.93.41-1.98.41-2.91,0L22.65,103.63l8.32-5.38-11.34-7.8-6.86,4.44c-4.77,2.77-6.38,8.89-3.61,13.65.82,1.42,2,2.62,3.39,3.48l67.01,45.76c5.16,3.28,11.72,3.35,16.96.2l68.87-44.67c4.72-2.73,6.33-8.77,3.6-13.5-.87-1.5-2.1-2.74-3.6-3.6Z"/>
  <path class="st2" d="M249.97,70.61c-3.84-6.1-9.55-9.15-17.16-9.15-7.32-.12-14.31,3.05-19.04,8.64-5.18,5.93-7.76,13.65-7.76,23.17s2.71,17.36,8.14,23.55c4.86,5.74,12.03,9,19.54,8.89,7.76,0,13.53-3.71,17.28-11.14l1.78,9.4h12.15V38.05h-14.93v32.56ZM249.97,97.03c.12,4.12-1.46,8.11-4.38,11.02-5.06,5.42-13.55,5.71-18.97.65-.52-.49-1.01-1.02-1.45-1.59-2.84-3.46-4.26-8.03-4.26-13.71s1.39-10.21,4.16-13.59c2.49-3.24,6.36-5.13,10.45-5.08,4.18,0,7.52,1.25,10.03,3.75,2.79,2.85,4.36,6.66,4.38,10.65l.04,7.89Z"/>
  <path class="st2" d="M312.6,61.47c-8.02,0-14.12,3.84-18.3,11.52v-34.94h-14.76v85.92h14.78v-28.18c.17-7.01,1.65-12.29,4.44-15.81,2.8-3.52,6.16-5.27,10.08-5.26,3.93,0,6.98,1.15,9.15,3.44s3.25,5.71,3.24,10.23v35.57h14.78v-35.57c0-8.1-1.9-14.62-5.7-19.54-3.8-4.93-9.7-7.39-17.71-7.39Z"/>
  <rect class="st2" x="350.16" y="62.97" width="14.78" height="60.99"/>
  <path class="st2" d="M357.59,34.79c-2.92,0-5.17.77-6.76,2.32-1.64,1.68-2.5,3.98-2.38,6.32-.12,2.35.73,4.64,2.38,6.32,1.58,1.55,3.84,2.31,6.76,2.31s5.08-.77,6.71-2.31c1.67-1.66,2.56-3.97,2.44-6.32.1-2.35-.81-4.64-2.49-6.29-1.62-1.58-3.85-2.35-6.66-2.35Z"/>
  <path class="st2" d="M417.04,91.28l-14.4-5.38c-4.93-1.42-7.39-3.59-7.39-6.51,0-1.66.9-3.14,2.7-4.45,1.79-1.29,4.32-1.94,7.57-1.94s5.77.59,7.49,1.76c1.66,1.03,2.74,2.8,2.88,4.76h13.9c-.12-5.08-2.54-9.82-6.57-12.9-4.22-3.42-10.23-5.13-18.04-5.13-7.8,0-14.01,1.56-18.63,4.7-4.63,3.13-6.95,7.29-6.96,12.48,0,7.76,4.93,13.36,14.78,16.78l13.31,4.75c2.11.57,4.1,1.51,5.89,2.76,1.27,1.04,1.97,2.62,1.88,4.26,0,1.83-1.02,3.44-3.07,4.82-2.35,1.46-5.08,2.18-7.83,2.06-8.26,0-12.47-2.88-12.65-8.64h-13.82c.08,6.43,2.58,11.42,7.49,14.98,4.91,3.55,11.42,5.32,19.54,5.32,8.1,0,14.62-1.92,19.54-5.76,4.77-3.68,7.16-8.02,7.15-13.02.13-3.59-1.26-7.07-3.83-9.58-2.55-2.48-6.19-4.51-10.93-6.1h0Z"/>
  <path class="st2" d="M458.37,110.44v-3c-.05-2.06.8-4.05,2.31-5.45,1.55-1.46,4.07-2.65,7.58-3.57l13.15-3.26c7.35-1.83,12.66-4.43,15.97-7.82,3.3-3.39,4.97-8.16,4.99-14.34,0-6.17-2.55-11.35-7.64-15.53-5.26-4.34-11.98-6.51-20.17-6.51-8.76,0-15.77,1.88-21.03,5.63-5.54,4.01-8.4,9.78-8.58,17.29h16.41c.83-6.66,5.47-9.98,13.9-9.98,3.84,0,6.84.92,9.02,2.75,2.09,1.67,3.29,4.22,3.25,6.9.04,2.58-.97,5.06-2.8,6.87-1.88,1.88-5.12,3.4-9.71,4.57l-11.89,2.92c-6.76,1.66-11.69,4.25-14.78,7.76-3.18,3.75-4.77,9.09-4.77,16.02v12.28h59.24v-13.53h-44.45Z"/>
  <g>
    <path class="st1" d="M556.68,125.72c-5.08,0-9.78-1.32-14.14-3.96-4.35-2.64-7.86-6.36-10.54-11.17-2.68-4.8-4.03-10.45-4.03-16.94,0-6.86,1.34-12.68,4.03-17.44,2.68-4.76,6.2-8.37,10.54-10.82s9.06-3.68,14.14-3.68c3.95,0,7.44.63,10.45,1.91,3.01,1.27,5.58,2.98,7.7,5.12,2.12,2.14,3.79,4.53,4.99,7.15,1.21,2.62,1.97,5.27,2.31,7.93l-14.85.37c-.67-2.66-1.91-4.87-3.71-6.61-1.81-1.75-4.15-2.62-7.02-2.62-2.37,0-4.6.66-6.68,1.96-2.08,1.31-3.78,3.34-5.08,6.08-1.31,2.75-1.96,6.3-1.96,10.67s.62,7.62,1.84,10.39c1.22,2.77,2.88,4.85,4.96,6.24,2.08,1.4,4.38,2.09,6.93,2.09,3.74,0,6.46-.91,8.18-2.71,1.71-1.81,2.55-4.23,2.55-7.27h14.85c0,4.28-.98,8.2-2.94,11.73-1.96,3.54-4.83,6.36-8.61,8.45-3.79,2.1-8.42,3.15-13.92,3.15h0Z"/>
    <path class="st1" d="M595.05,123.98V38.36h14.73v85.61h-14.73Z"/>
    <path class="st1" d="M636.93,52.34c-2.87,0-5.11-.76-6.71-2.28-1.61-1.51-2.4-3.63-2.4-6.33s.8-4.71,2.4-6.27c1.6-1.56,3.84-2.34,6.71-2.34s5.06.78,6.68,2.34c1.62,1.56,2.43,3.65,2.43,6.27s-.82,4.82-2.43,6.33c-1.62,1.52-3.85,2.28-6.68,2.28ZM629.57,123.98v-60.78h14.73v60.78h-14.73Z"/>
    <path class="st1" d="M664.51,123.98v-60.53h12.85l1.62,10.36c2-4.04,4.64-7.06,7.93-9.08s7.05-3.03,11.3-3.03c4.99,0,9.16,1.11,12.51,3.34,3.34,2.23,5.87,5.36,7.55,9.39,1.68,4.04,2.53,8.74,2.53,14.1v35.44h-14.73v-35.44c0-4.49-1.08-7.88-3.24-10.18-2.16-2.29-4.99-3.43-8.49-3.43-2.95,0-5.57.82-7.83,2.43-2.27,1.62-4.04,4.07-5.33,7.33-1.29,3.27-1.94,7.33-1.94,12.2v27.08h-14.74ZM746.75,123.98v-35.44c0-4.49-1.08-7.88-3.24-10.18-2.16-2.29-4.99-3.43-8.49-3.43-4.41,0-7.89,1.79-10.43,5.37-2.54,3.58-3.81,8.99-3.81,16.22h-6.12c0-6.36.59-11.76,1.78-16.19,1.18-4.43,2.87-8,5.05-10.73,2.18-2.72,4.75-4.72,7.7-5.99,2.95-1.26,6.22-1.91,9.8-1.91,4.95,0,9.1,1.11,12.45,3.34,3.34,2.23,5.87,5.36,7.58,9.39,1.71,4.04,2.55,8.74,2.55,14.1v35.44h-14.85.02Z"/>
    <path class="st1" d="M796.92,125.72c-5.2,0-9.53-.91-13.01-2.71-3.48-1.81-6.08-4.19-7.83-7.15-1.75-2.95-2.62-6.16-2.62-9.61,0-3.83,1.01-7.04,3.03-9.64,2.01-2.6,4.88-4.55,8.58-5.87s8.07-1.96,13.1-1.96c3.29,0,6.4.25,9.33.75,2.94.5,5.86,1.16,8.77,2v8.61c-2.29-.75-4.78-1.33-7.49-1.75-2.7-.42-5.24-.62-7.61-.62-3.49,0-6.36.65-8.61,1.94s-3.37,3.47-3.37,6.56c0,2.25.92,4.18,2.75,5.8,1.83,1.62,4.74,2.43,8.74,2.43,3.04,0,5.62-.67,7.74-2,2.12-1.33,3.74-3,4.83-4.99,1.1-2,1.66-3.99,1.66-5.99h3.49c0,4.37-.81,8.39-2.43,12.07-1.62,3.68-4.03,6.62-7.21,8.83-3.18,2.2-7.12,3.3-11.82,3.3h0ZM816.76,123.98l-1.87-14.73v-24.34c0-4.24-.87-7.38-2.59-9.43-1.73-2.04-4.65-3.05-8.77-3.05-2.37,0-4.43.36-6.18,1.06s-3.09,1.71-4.03,3.03c-.93,1.31-1.41,2.9-1.41,4.78h-16.1c0-4.58,1.1-8.31,3.31-11.2,2.2-2.89,5.37-5.01,9.52-6.36,4.14-1.35,9.1-2.03,14.88-2.03,5.24,0,9.82.84,13.73,2.53,3.91,1.69,6.95,4.28,9.11,7.77,2.16,3.49,3.24,7.97,3.24,13.41v38.56h-12.85Z"/>
    <path class="st1" d="M838.85,73.18v-9.73h39.69v9.73h-39.69ZM866.93,125.72c-3.58,0-6.86-.67-9.83-2-2.98-1.33-5.34-3.37-7.11-6.12-1.77-2.75-2.65-6.24-2.65-10.48v-59.78h14.73v59.28c0,4.99,2.37,7.49,7.11,7.49,1.46,0,2.91-.17,4.37-.5,1.46-.33,3.12-.83,4.99-1.5l2.12,10.36c-2.33.92-4.6,1.68-6.8,2.3-2.2.62-4.52.93-6.93.93h0Z"/>
    <path class="st1" d="M913.55,125.72c-5.16,0-9.88-1.33-14.16-3.99-4.28-2.66-7.72-6.4-10.3-11.2-2.58-4.81-3.87-10.43-3.87-16.88s1.28-12.37,3.84-17.16c2.56-4.78,5.98-8.44,10.27-10.98,4.28-2.54,9.03-3.8,14.23-3.8,4.83,0,8.99.97,12.51,2.9,3.51,1.94,6.34,4.55,8.49,7.86,2.14,3.3,3.59,7.04,4.33,11.2.75,4.16.79,8.44.12,12.85h-42.06v-7.99h31.63l-2.87,1.87c.12-1.96.03-3.94-.28-5.92-.32-2-.91-3.83-1.78-5.49-.87-1.66-2.11-3-3.71-4.03-1.6-1.02-3.65-1.53-6.15-1.53-3,0-5.53.75-7.61,2.25-2.08,1.5-3.66,3.54-4.74,6.12-1.08,2.58-1.62,5.49-1.62,8.74v5.87c0,3.41.51,6.43,1.53,9.05,1.02,2.62,2.54,4.68,4.55,6.18,2.01,1.5,4.57,2.25,7.65,2.25,2.87,0,5.28-.67,7.24-2s3.2-3.33,3.74-5.99h14.85c-.62,3.91-2.09,7.35-4.4,10.33-2.3,2.98-5.29,5.31-8.95,6.99-3.66,1.69-7.82,2.53-12.48,2.53v-.02Z"/>
    <path class="st1" d="M971.57,73.18v-9.73h39.69v9.73h-39.69ZM999.65,125.72c-3.58,0-6.86-.67-9.83-2-2.98-1.33-5.34-3.37-7.11-6.12-1.77-2.75-2.65-6.24-2.65-10.48v-59.78h14.73v59.28c0,4.99,2.37,7.49,7.11,7.49,1.46,0,2.91-.17,4.37-.5s3.12-.83,4.99-1.5l2.12,10.36c-2.33.92-4.6,1.68-6.8,2.3-2.2.62-4.52.93-6.93.93h0Z"/>
    <path class="st1" d="M1047.52,125.72c-5.53,0-10.53-1.18-15.01-3.55-4.48-2.37-8.02-5.92-10.64-10.64-2.62-4.72-3.94-10.64-3.94-17.76s1.31-13.23,3.94-17.97c2.62-4.74,6.17-8.28,10.64-10.61,4.47-2.33,9.48-3.49,15.01-3.49s10.39,1.16,14.82,3.49c4.43,2.33,7.95,5.87,10.57,10.61,2.62,4.74,3.93,10.73,3.93,17.97s-1.31,13.03-3.93,17.75c-2.62,4.73-6.15,8.27-10.57,10.64-4.43,2.37-9.37,3.55-14.82,3.55h0ZM1047.02,112.87c2.91,0,5.5-.72,7.77-2.15,2.26-1.43,4.06-3.57,5.37-6.4,1.31-2.83,1.96-6.34,1.96-10.54,0-6.41-1.26-11.23-3.78-14.48-2.52-3.24-5.96-4.87-10.33-4.87-2.95,0-5.57.72-7.86,2.15-2.29,1.44-4.09,3.59-5.4,6.46s-1.96,6.45-1.96,10.73c0,6.32,1.28,11.09,3.84,14.29,2.56,3.2,6.02,4.81,10.39,4.81h0Z"/>
    <path class="st1" d="M1113.4,125.72c-5.53,0-10.53-1.18-15.01-3.55-4.48-2.37-8.02-5.92-10.64-10.64-2.62-4.72-3.94-10.64-3.94-17.76s1.31-13.23,3.94-17.97c2.62-4.74,6.17-8.28,10.64-10.61,4.47-2.33,9.48-3.49,15.01-3.49s10.39,1.16,14.82,3.49c4.43,2.33,7.95,5.87,10.57,10.61,2.62,4.74,3.93,10.73,3.93,17.97s-1.31,13.03-3.93,17.75c-2.62,4.73-6.15,8.27-10.57,10.64-4.43,2.37-9.37,3.55-14.82,3.55h0ZM1112.91,112.87c2.91,0,5.5-.72,7.77-2.15,2.26-1.43,4.06-3.57,5.37-6.4,1.31-2.83,1.96-6.34,1.96-10.54,0-6.41-1.26-11.23-3.78-14.48s-5.96-4.87-10.33-4.87c-2.95,0-5.57.72-7.86,2.15-2.29,1.44-4.09,3.59-5.4,6.46s-1.96,6.45-1.96,10.73c0,6.32,1.28,11.09,3.84,14.29,2.56,3.2,6.02,4.81,10.39,4.81h0Z"/>
    <path class="st1" d="M1155.46,123.98V38.36h14.73v85.61h-14.73Z"/>
    <path class="st1" d="M1211.31,125.72c-5.82,0-10.82-.8-15.01-2.4-4.19-1.6-7.4-3.91-9.64-6.93-2.25-3.01-3.39-6.65-3.43-10.89h13.6c.12,3,1.31,5.18,3.55,6.56,2.25,1.37,5.31,2.06,9.18,2.06,2.12,0,4-.32,5.65-.93,1.64-.62,2.92-1.47,3.84-2.56.92-1.08,1.37-2.29,1.37-3.62,0-1.71-.62-3.05-1.84-4.03-1.23-.97-3.19-1.88-5.9-2.71l-13.23-4.74c-4.74-1.71-8.39-3.95-10.92-6.74-2.54-2.79-3.8-6.12-3.8-9.98,0-5.12,2.32-9.24,6.96-12.39,4.63-3.14,10.85-4.71,18.63-4.71s13.72,1.7,17.94,5.08c4.22,3.39,6.4,7.69,6.52,12.89h-13.85c-.21-2-1.16-3.58-2.87-4.74-1.71-1.16-4.28-1.75-7.74-1.75-3.12,0-5.57.63-7.33,1.91-1.77,1.27-2.65,2.75-2.65,4.46,0,2.87,2.45,5.03,7.36,6.49l14.35,5.37c4.66,1.58,8.28,3.62,10.86,6.12,2.58,2.5,3.87,5.66,3.87,9.48,0,3.2-1.07,6.23-3.21,9.08-2.15,2.85-5.13,5.17-8.95,6.96-3.83,1.79-8.26,2.68-13.3,2.68h0Z"/>
  </g>
</svg>