<?xml version="1.0" encoding="UTF-8"?>
<svg id="Layer_1" xmlns="http://www.w3.org/2000/svg" version="1.1" viewBox="0 0 96 96">
  <!-- Generator: Adobe Illustrator 29.8.1, SVG Export Plug-In . SVG Version: 2.1.1 Build 2)  -->
  <defs>
    <style>
      .st0 {
        fill: #fff;
      }

      .st1 {
        fill: #06204f;
      }
    </style>
  </defs>
  <g>
    <rect class="st0" x=".75" y=".75" width="94.5" height="94.5" rx="6.41" ry="6.41"/>
    <path class="st1" d="M88.84,1.5c3.12,0,5.66,2.54,5.66,5.66v81.68c0,3.12-2.54,5.66-5.66,5.66H7.16c-3.12,0-5.66-2.54-5.66-5.66V7.16C1.5,4.04,4.04,1.5,7.16,1.5h81.68M88.84,0H7.16C3.2,0,0,3.2,0,7.16v81.68c0,3.95,3.2,7.16,7.16,7.16h81.68c3.95,0,7.16-3.2,7.16-7.16V7.16c0-3.95-3.2-7.16-7.16-7.16h0Z"/>
  </g>
  <g>
    <polygon class="st1" points="26.38 61.05 23.94 61.05 23.94 72.06 43.51 72.06 43.51 69.62 26.38 69.62 26.38 61.05"/>
    <polygon class="st1" points="69.62 34.95 72.06 34.95 72.06 23.94 52.49 23.94 52.49 26.38 69.62 26.38 69.62 34.95"/>
    <path class="st1" d="M37.8,26.59c0-4.61-3.75-8.36-8.36-8.36s-8.36,3.75-8.36,8.36,3.75,8.36,8.36,8.36,8.36-3.75,8.36-8.36ZM23.53,26.59c0-3.26,2.65-5.92,5.92-5.92s5.92,2.66,5.92,5.92-2.65,5.92-5.92,5.92-5.92-2.66-5.92-5.92Z"/>
    <path class="st1" d="M34.16,43.53c2.36.27,4.06,2.19,4.06,4.47v1.22h2.44v-1.68c-.22-3.61-3.26-6.47-6.93-6.47h-9.02c-3.61.22-6.47,3.26-6.47,6.93v1.22h2.44l.02-1.65c.27-2.35,2.19-4.06,4.47-4.06l8.99.02Z"/>
    <path class="st1" d="M74.91,55.14c0-4.61-3.75-8.36-8.36-8.36s-8.36,3.75-8.36,8.36,3.75,8.36,8.36,8.36,8.36-3.75,8.36-8.36ZM60.64,55.14c0-3.26,2.65-5.92,5.92-5.92s5.92,2.65,5.92,5.92-2.65,5.92-5.92,5.92-5.92-2.66-5.92-5.92Z"/>
    <path class="st1" d="M75.33,76.55v1.22h2.44v-1.67c-.22-3.61-3.26-6.47-6.93-6.47h-9.02c-3.61.22-6.47,3.26-6.47,6.93v1.22h2.44l.03-1.74c.26-2.26,2.18-3.97,4.46-3.97l9.09.03c2.26.26,3.97,2.18,3.97,4.46Z"/>
  </g>
</svg>