<?xml version="1.0" encoding="UTF-8"?>
<svg id="Layer_1" xmlns="http://www.w3.org/2000/svg" version="1.1" viewBox="0 0 96 96">
  <!-- Generator: Adobe Illustrator 29.8.2, SVG Export Plug-In . SVG Version: 2.1.1 Build 3)  -->
  <defs>
    <style>
      .st0 {
        fill: #fff;
      }

      .st1 {
        fill: #06204f;
      }
    </style>
  </defs>
  <g>
    <rect class="st0" x=".75" y=".75" width="94.5" height="94.5" rx="6.41" ry="6.41"/>
    <path class="st1" d="M88.84,1.5c3.12,0,5.66,2.54,5.66,5.66v81.68c0,3.12-2.54,5.66-5.66,5.66H7.16c-3.12,0-5.66-2.54-5.66-5.66V7.16C1.5,4.04,4.04,1.5,7.16,1.5h81.68M88.84,0H7.16C3.2,0,0,3.2,0,7.16v81.68c0,3.95,3.2,7.16,7.16,7.16h81.68c3.95,0,7.16-3.2,7.16-7.16V7.16c0-3.95-3.2-7.16-7.16-7.16h0Z"/>
  </g>
  <g>
    <path class="st1" d="M43.41,64.29v-2.39c-6.12-.08-11.87-.92-16.2-2.36-2.65-.89-5.9-2.34-6.3-4.19v-10.44l.38.25c1.56,1.01,3.26,1.8,5.03,2.36,4.88,1.63,11.31,2.52,18.11,2.52,1.06,0,2.14-.02,3.23-.07.4-.83.94-1.59,1.59-2.24.12-.12.24-.23.37-.34l.37-.37c-1.83.14-3.7.21-5.58.21-6.53,0-12.65-.84-17.21-2.37-2.66-.89-5.92-2.33-6.31-4.2v-11.15l.38.25c1.56,1.01,3.26,1.81,5.04,2.37,4.95,1.64,11.38,2.55,18.13,2.55s13.18-.9,18.08-2.55c1.8-.57,3.51-1.38,5.09-2.41l.39-.25v10.69h.38c.85,0,1.68.13,2.48.38v-15.9c0-.16-.03-.32-.08-.47-.5-2.59-3.42-4.88-8.23-6.48-4.87-1.63-11.3-2.52-18.1-2.52s-13.23.9-18.12,2.52c-5.32,1.79-8.26,4.35-8.26,7.24.02,14.88.02,29.8-.01,44.36v1.05c0,3.11,5.96,5.77,8.26,6.54,4.87,1.62,11.3,2.52,18.1,2.52,1.91,0,3.82-.07,5.68-.21l-1.43-1.43c-.37-.38-.71-.8-1.01-1.25-1.05.07-2.1.07-3.21.07-6.53,0-12.64-.84-17.21-2.37-2.66-.89-5.91-2.33-6.31-4.19v-10.44l.38.25c1.57,1.01,3.26,1.81,5.04,2.37,4.61,1.54,10.66,2.43,17.09,2.51v-.42h-.03ZM27.21,20.36c4.59-1.53,10.7-2.37,17.23-2.37s12.64.84,17.21,2.37c2.9.97,6.35,2.54,6.35,4.56,0,1.58-2.25,3.2-6.35,4.57-4.48,1.52-10.6,2.36-17.23,2.36s-12.65-.84-17.21-2.36c-4.19-1.4-6.32-2.94-6.32-4.56s2.13-3.16,6.32-4.56h0Z"/>
    <path class="st1" d="M80.95,59.22h-1.66c-.19-.64-.43-1.27-.72-1.88l1.37-1.37c1-1,1-2.63,0-3.64l-.62-.62h.02l-1.71-1.71c-1-1-2.64-1-3.64,0l-1.18,1.16c-.6-.33-1.22-.61-1.86-.84v-1.91c0-1.42-1.16-2.58-2.58-2.58h-3.31c-1.42,0-2.58,1.16-2.58,2.58v1.65c-.65.19-1.29.43-1.91.72l-1.37-1.37c-1-1-2.64-1-3.64,0l-2.33,2.33c-1,1-1,2.63,0,3.64l1.17,1.17c-.33.6-.61,1.22-.84,1.86h-1.91c-1.42,0-2.58,1.16-2.58,2.58v3.29c0,1.42,1.16,2.58,2.58,2.58h1.66c.19.65.43,1.29.72,1.91l-1.37,1.37c-1,1-1,2.63,0,3.64l2.33,2.33c1,1,2.64,1,3.64,0l1.18-1.17c.6.33,1.21.61,1.85.84v1.92c0,1.42,1.16,2.58,2.58,2.58h3.31c1.42,0,2.58-1.16,2.58-2.58v-1.66c.65-.19,1.29-.43,1.91-.72l1.37,1.37c1,1,2.64,1,3.64,0l2.33-2.33c1-1.01,1-2.64,0-3.65l-1.17-1.17c.33-.59.6-1.21.84-1.85h1.91c1.42,0,2.58-1.16,2.58-2.58v-3.29c0-1.42-1.16-2.58-2.58-2.58v-.02ZM77.94,72.11c.23.23.23.59,0,.82l-2.33,2.33c-.23.22-.59.22-.82,0l-2.4-2.4-.65.35c-.9.48-1.87.84-2.86,1.07l-.78.18v3.22c0,.32-.26.58-.58.58h-3.31c-.32,0-.58-.26-.58-.58v-3.37l-.71-.22c-.98-.3-1.91-.72-2.77-1.27l-.67-.42-2.28,2.28c-.23.22-.59.22-.82,0l-2.33-2.33c-.22-.23-.22-.59,0-.82l2.4-2.4-.35-.66c-.48-.9-.84-1.86-1.07-2.85l-.18-.78h-3.22c-.32,0-.58-.26-.58-.58v-3.29c0-.32.26-.58.58-.58h3.37l.22-.71c.3-.98.72-1.91,1.26-2.78l.42-.68-2.29-2.28c-.22-.23-.22-.59,0-.82l2.33-2.33c.23-.22.59-.22.82,0l2.4,2.4.65-.35c.9-.48,1.86-.84,2.85-1.07l.78-.18v-3.22c0-.32.26-.58.58-.58h3.31c.32,0,.58.26.58.58v3.38l.71.21c.98.29,1.91.72,2.77,1.26l.67.42,2.29-2.26c.2-.2.51-.22.73-.07l2.4,2.4c.22.23.22.59,0,.82l-2.4,2.4.35.65c.48.89.84,1.85,1.07,2.84l.18.77h3.22c.32,0,.58.26.58.58v3.29c0,.32-.26.58-.58.58h-3.38l-.21.71c-.3.98-.72,1.91-1.26,2.77l-.42.67,2.28,2.28.03.04Z"/>
    <path class="st1" d="M66.29,70.64c-4.19,0-7.6-3.41-7.6-7.6s3.41-7.6,7.6-7.6,7.6,3.41,7.6,7.6-3.41,7.6-7.6,7.6ZM66.29,56.94c-3.37,0-6.1,2.74-6.1,6.1s2.74,6.1,6.1,6.1,6.1-2.74,6.1-6.1-2.74-6.1-6.1-6.1Z"/>
  </g>
</svg>