<?xml version="1.0" encoding="UTF-8"?>
<svg id="Layer_1" xmlns="http://www.w3.org/2000/svg" version="1.1" viewBox="0 0 96 96">
  <!-- Generator: Adobe Illustrator 29.8.2, SVG Export Plug-In . SVG Version: 2.1.1 Build 3)  -->
  <defs>
    <style>
      .st0 {
        fill: #051841;
      }

      .st1 {
        fill: #fff;
      }

      .st2 {
        fill: #06204f;
      }
    </style>
  </defs>
  <g>
    <rect class="st1" x=".75" y=".75" width="94.5" height="94.5" rx="6.41" ry="6.41"/>
    <path class="st2" d="M88.84,1.5c3.12,0,5.66,2.54,5.66,5.66v81.68c0,3.12-2.54,5.66-5.66,5.66H7.16c-3.12,0-5.66-2.54-5.66-5.66V7.16C1.5,4.04,4.04,1.5,7.16,1.5h81.68M88.84,0H7.16C3.2,0,0,3.2,0,7.16v81.68c0,3.95,3.2,7.16,7.16,7.16h81.68c3.95,0,7.16-3.2,7.16-7.16V7.16c0-3.95-3.2-7.16-7.16-7.16h0Z"/>
  </g>
  <g>
    <path class="st2" d="M88.34,85.2l-24.14-24.14c5.17-5.6,8.33-13.05,8.33-21.21,0-17.38-14.33-31.51-31.93-31.51s-31.93,14.14-31.93,31.51,14.33,31.51,31.93,31.51c8.09,0,15.47-2.99,21.1-7.89l24.18,24.18,2.45-2.45ZM11.66,39.85c0-15.72,12.98-28.51,28.93-28.51s28.93,12.79,28.93,28.51-12.98,28.51-28.93,28.51-28.93-12.79-28.93-28.51Z"/>
    <polygon class="st0" points="26.53 22.91 23.32 22.91 23.32 54.46 59.9 54.46 59.9 51.25 26.53 51.25 26.53 22.91"/>
    <polygon class="st0" points="58.68 26.5 55.83 25.06 47.78 41.02 39.13 36.69 30.41 46.27 32.77 48.44 39.86 40.64 49.21 45.32 58.68 26.5"/>
  </g>
</svg>