<?xml version="1.0" encoding="UTF-8"?>
<svg id="Layer_1" xmlns="http://www.w3.org/2000/svg" version="1.1" viewBox="0 0 96 96">
  <!-- Generator: Adobe Illustrator 29.8.1, SVG Export Plug-In . SVG Version: 2.1.1 Build 2)  -->
  <defs>
    <style>
      .st0 {
        fill-rule: evenodd;
      }

      .st0, .st1 {
        fill: #fff;
      }

      .st0, .st2 {
        stroke: #06204f;
        stroke-width: 2px;
      }

      .st2 {
        fill: none;
      }

      .st3 {
        fill: #06204f;
      }
    </style>
  </defs>
  <g>
    <rect class="st1" x=".75" y=".75" width="94.5" height="94.5" rx="6.41" ry="6.41"/>
    <path class="st3" d="M88.84,1.5c3.12,0,5.66,2.54,5.66,5.66v81.68c0,3.12-2.54,5.66-5.66,5.66H7.16c-3.12,0-5.66-2.54-5.66-5.66V7.16C1.5,4.04,4.04,1.5,7.16,1.5h81.68M88.84,0H7.16C3.2,0,0,3.2,0,7.16v81.68c0,3.95,3.2,7.16,7.16,7.16h81.68c3.95,0,7.16-3.2,7.16-7.16V7.16c0-3.95-3.2-7.16-7.16-7.16h0Z"/>
  </g>
  <g>
    <path class="st2" d="M20.1,70.39h42.47"/>
    <path class="st2" d="M20.1,21.23h30.76"/>
    <path class="st2" d="M20.1,45.81h61.52"/>
    <path class="st2" d="M58.67,75.51l4.88-5.12-4.88-5.12"/>
    <path class="st2" d="M47.44,26.35l4.88-5.12-4.88-5.12"/>
    <path class="st2" d="M76.73,50.93l4.88-5.12-4.88-5.12"/>
    <g>
      <path class="st0" d="M51.83,40.69h0c2.7,0,4.88,2.19,4.88,4.88v.48c0,2.7-2.19,4.88-4.88,4.88h0c-2.7,0-4.88-2.19-4.88-4.88v-.48c0-2.7,2.19-4.88,4.88-4.88Z"/>
      <path class="st0" d="M25.96,16.11h0c2.7,0,4.88,2.19,4.88,4.88v.48c0,2.7-2.19,4.88-4.88,4.88h0c-2.7,0-4.88-2.19-4.88-4.88v-.48c0-2.7,2.19-4.88,4.88-4.88Z"/>
      <path class="st0" d="M41.09,65.27h0c2.7,0,4.88,2.19,4.88,4.88v.48c0,2.7-2.19,4.88-4.88,4.88h0c-2.7,0-4.88-2.19-4.88-4.88v-.48c0-2.7,2.19-4.88,4.88-4.88Z"/>
    </g>
  </g>
</svg>